<svg xmlns="http://www.w3.org/2000/svg" width="437" height="326" viewBox="0 0 437 326"><path fill="none" stroke="#4E83CB" stroke-miterlimit="10" d="M172 175H2m373 149h-41l-88-51m189-98H259M242 73l94-71h39M193 72L96 2H55"/><path fill="#4E83CB" d="M242 71c1.1 0 2 .8 2 2 0 1.1-.8 2-2 2h-.1c-1.1 0-2-.9-2-2 .2-1.1 1-2 2.1-2zM375 0c1.1 0 2 .8 2 2s-.8 2-2 2h-.1c-1.1 0-2-.9-2-2 .2-1.1 1-2 2.1-2zm0 322c1.1 0 2 .9 2 2s-.9 2-2 2h-.1c-1.1 0-2-.9-2-2 .2-1.1 1-2 2.1-2zm60-149c1.1 0 2 .8 2 2 0 1.1-.8 2-2 2h-.1c-1.1 0-2-.9-2-2 .2-1.1 1-2 2.1-2zm-176 0c1.1 0 2 .8 2 2 0 1.1-.8 2-2 2h-.1c-1.1 0-2-.9-2-2 .2-1.1 1-2 2.1-2zm-13 98c1.1 0 2 .8 2 2 0 1.1-.8 2-2 2h-.1c-1.1 0-2-.9-2-2 .2-1.1 1-2 2.1-2zM2 173c1.1 0 2 .8 2 2 0 1.1-.8 2-2 2h-.1c-1.1 0-2-.9-2-2 .2-1.1 1-2 2.1-2zm170 0c1.1 0 2 .8 2 2 0 1.1-.8 2-2 2h-.1c-1.1 0-2-.9-2-2 .2-1.1 1-2 2.1-2zm21-103c1.1 0 2 .9 2 2s-.9 2-2 2h-.1c-1.1 0-2-.9-2-2 .2-1.1 1-2 2.1-2zM55 0c1.1 0 2 .8 2 2s-.8 2-2 2h-.1c-1.1 0-2-.9-2-2 .2-1.1 1-2 2.1-2z"/></svg>