<svg xmlns="http://www.w3.org/2000/svg" width="437" height="326" viewBox="0 0 437 326">
  <metadata><?xpacket begin="﻿" id="W5M0MpCehiHzreSzNTczkc9d"?>
<x:xmpmeta xmlns:x="adobe:ns:meta/" x:xmptk="Adobe XMP Core 5.6-c138 79.159824, 2016/09/14-01:09:01        ">
   <rdf:RDF xmlns:rdf="http://www.w3.org/1999/02/22-rdf-syntax-ns#">
      <rdf:Description rdf:about=""/>
   </rdf:RDF>
</x:xmpmeta>
                                                                                                    
                                                                                                    
                                                                                                    
                                                                                                    
                                                                                                    
                                                                                                    
                                                                                                    
                                                                                                    
                                                                                                    
                                                                                                    
                                                                                                    
                                                                                                    
                                                                                                    
                                                                                                    
                                                                                                    
                                                                                                    
                                                                                                    
                                                                                                    
                                                                                                    
                                                                                                    
                           
<?xpacket end="w"?></metadata>
<defs>
    <style>
      .cls-1 {
        fill: #4e83cb;
        fill-rule: evenodd;
      }
    </style>
  </defs>
  <path id="Ellipse_5_copy_10" data-name="Ellipse 5 copy 10" class="cls-1" d="M170,175H3M55,324H94l97.5-51.206M376,324H334l-87.5-51.206M434,175H262M245.193,70.578L336,2h38M190.806,70.578L96,2H58M242,71a2,2,0,1,1-2,2A2,2,0,0,1,242,71ZM375,0a2,2,0,1,1-2,2A2,2,0,0,1,375,0Zm0,322a2,2,0,1,1-2,2A2,2,0,0,1,375,322Zm60-149a2,2,0,1,1-2,2A2,2,0,0,1,435,173Zm-176,0a2,2,0,1,1-2,2A2,2,0,0,1,259,173Zm-13,98a2,2,0,1,1-2,2A2,2,0,0,1,246,271Zm-55,0a2,2,0,1,1-2,2A2,2,0,0,1,191,271ZM53,322a2,2,0,1,1-2,2A2,2,0,0,1,53,322ZM2,173a2,2,0,1,1-2,2A2,2,0,0,1,2,173Zm170,0a2,2,0,1,1-2,2A2,2,0,0,1,172,173ZM193,70a2,2,0,1,1-2,2A2,2,0,0,1,193,70ZM55,0a2,2,0,1,1-2,2A2,2,0,0,1,55,0Z"/>
</svg>
