<svg id="Layer_4" xmlns="http://www.w3.org/2000/svg" width="1465.8" height="206.6" viewBox="0 0 1465.8 206.6"><style>.s{opacity:.5;fill:#06408e}</style><path class="s" d="M705.2 29.7l-42.3 59.8H141.5l-85.8 96.1h938.9l27.1-45.3h359.4l84.7-109.8z"/><path class="s" d="M1288.4 165.7l43.9-61.6 30.8.2 58.2-73.7-1255.4-1.5L65.5 140.8l-25.7-.8L0 185.6h321.3l-19.6 21h347l21.3-21.9h375.1l9.8-19z"/><path class="s" d="M1044.2 12.5l-382.6-.8-11.8 15.8-314.1 1.8-54.4 59.4h-83l-66 77.6h1130l98.8-135.9-329.5-.3z"/><path class="s" d="M865 140.4h276.9l26.4-32.9 39.6.2 57-77.2-460.5.2 21.9-29.2L546.8 0l-24.9 29.4 397.3-.3L898 57.8l-786.5-.3-26.5 32h150l-63.6 76.8 678-1z"/></svg>