<svg xmlns="http://www.w3.org/2000/svg" width="357.28" height="70.47" viewBox="0 0 357.28 70.47"><path d="M74.682.73c.338.96-.427 1.23-2.052 1.79-7.374 2.57-28.638 8.63-28.638 8.63s19.992-8 27.89-10.74c1.533-.54 2.462-.64 2.8.32zm-44 50.1c.338.96-.427 1.23-2.052 1.79-7.374 2.57-28.638 8.63-28.638 8.63s19.993-8 27.89-10.74c1.534-.53 2.462-.64 2.8.32zM295.4 11.63c-.3.97-1.07.73-2.72.22-7.449-2.33-28.143-10.12-28.143-10.12s20.823 5.48 28.8 7.97c1.553.49 2.363.96 2.063 1.93zm61.79 58.19c-.34.95-1.11.68-2.73.1-7.34-2.63-27.69-11.28-27.69-11.28s20.57 6.34 28.44 9.17c1.53.55 2.31 1.05 1.98 2.01z" fill="#fff" fill-rule="evenodd"/></svg>