<svg xmlns="http://www.w3.org/2000/svg" width="106.938" height="84.563">
    <path d="M23.029 54.558c8.14 5.535 18.954 8.583 30.44 8.583s22.3-3.048 30.44-8.584c8.256-5.612 12.8-13.109 12.8-21.112s-4.547-15.5-12.8-21.112c-8.14-5.534-18.955-8.583-30.44-8.583s-22.3 3.049-30.44 8.584c-8.256 5.612-12.8 13.109-12.8 21.112s4.54 15.5 12.8 21.112zm30.44 6.683c-.178 0-1.871-.032-1.89-.033l.006-.724c.624.026 1.252.045 1.883.045s1.253-.018 1.884-.045l.006.724c-.02.001-1.704.033-1.889.033zm-29.776-10.28l3.738-.693q.61.727 1.309 1.419l-3.031 1.059a25.734 25.734 0 0 1-2.016-1.785zm2-8.135a12.354 12.354 0 0 1-.3-2.676c0-.381.018-.764.053-1.139a12.5 12.5 0 0 1 .6-2.826 13.993 13.993 0 0 1 1.272-2.75 17.073 17.073 0 0 1 1.965-2.652 20.865 20.865 0 0 1 2.1-2.014 24.81 24.81 0 0 1 3.01-2.155 29.071 29.071 0 0 1 3.05-1.62 33.593 33.593 0 0 1 3.76-1.462 37.494 37.494 0 0 1 3.552-.946 39.1 39.1 0 0 1 4.193-.672c.023 0 .047-.006.069-.01l.414-.04v1.915a28.8 28.8 0 0 0-13.766 5.029c-3.946 2.911-6.118 6.694-6.118 10.646 0 4.326 2.542 8.364 7.159 11.369a31.028 31.028 0 0 0 16.763 4.533 31.028 31.028 0 0 0 16.762-4.537c4.617-3.005 7.159-7.043 7.159-11.369 0-3.952-2.172-7.733-6.117-10.646a28.8 28.8 0 0 0-13.765-5.025v-1.915l.227.022a39.4 39.4 0 0 1 4.214.65c1.2.248 2.4.561 3.573.928a34.646 34.646 0 0 1 3.78 1.437 30.2 30.2 0 0 1 3.07 1.607 25.2 25.2 0 0 1 3.044 2.142 21.1 21.1 0 0 1 2.131 2.018 17.143 17.143 0 0 1 2 2.651 14.264 14.264 0 0 1 1.312 2.775 12.7 12.7 0 0 1 .626 2.87c.038.4.057.8.057 1.185a12.2 12.2 0 0 1-.289 2.646 13.206 13.206 0 0 1-1.038 2.962 15.925 15.925 0 0 1-1.858 2.922 20.057 20.057 0 0 1-2.652 2.723 25.565 25.565 0 0 1-4.379 2.984 31.271 31.271 0 0 1-4.151 1.877 36.722 36.722 0 0 1-6.122 1.676 40.892 40.892 0 0 1-5.066.613 42.781 42.781 0 0 1-5.3-.016 40.955 40.955 0 0 1-5.045-.641 36.688 36.688 0 0 1-6.08-1.7 31.372 31.372 0 0 1-4.075-1.876 25.414 25.414 0 0 1-4.329-2.978 19.848 19.848 0 0 1-2.61-2.7 15.694 15.694 0 0 1-1.825-2.88 13.068 13.068 0 0 1-1.034-2.936zm27.776-13.551a3.591 3.591 0 0 0 .713-.075v3.206a.713.713 0 0 1-1.426 0V29.2a3.591 3.591 0 0 0 .713.075zm4-3.59q.99.116 1.946.288l-2.966 3.754a7.345 7.345 0 0 0-.365-.112v-1.4a4.011 4.011 0 0 0 1.385-2.53zM31.448 39.454a10.283 10.283 0 0 1 2.791-6.791l12.479 1.509a3.575 3.575 0 0 0 .576 1.668l-15.248 6.859a9.207 9.207 0 0 1-.598-3.245zm14.006-13.035l3.279 4.152a4.847 4.847 0 0 0-1.623 1.736L36 30.963a23.915 23.915 0 0 1 9.454-4.544zm8.015 8.6a2.616 2.616 0 0 0 2.614-2.613v-.794c.1.038.2.077.3.12a3.083 3.083 0 0 1 1.911 1.835 1.423 1.423 0 0 1 .043.349 2.087 2.087 0 0 1-.868 1.529 5.363 5.363 0 0 1-2.11 1 8.066 8.066 0 0 1-3.784 0 5.365 5.365 0 0 1-2.111-1 2.086 2.086 0 0 1-.864-1.528 1.427 1.427 0 0 1 .044-.353 3.082 3.082 0 0 1 1.91-1.831c.1-.043.2-.082.3-.12v.794a2.616 2.616 0 0 0 2.615 2.612zm-4.721 2.251a7.041 7.041 0 0 0 1.265.661l-6.828 13.9c-4.7-1.587-8.4-4.226-10.31-7.422zm3.132 1.172a9.749 9.749 0 0 0 3.178 0l6.849 13.944a33.824 33.824 0 0 1-16.877 0zm11.873 13.39l-6.828-13.9a7.033 7.033 0 0 0 1.265-.661l15.874 7.14c-1.91 3.195-5.607 5.834-10.312 7.421zm11.138-9.133l-15.248-6.858a3.576 3.576 0 0 0 .577-1.668l12.479-1.51a10.284 10.284 0 0 1 2.791 6.791 9.207 9.207 0 0 1-.599 3.245zM59.827 32.306a4.847 4.847 0 0 0-1.623-1.736l3.28-4.151a23.915 23.915 0 0 1 9.454 4.544zm-8.972-2.687q-.184.052-.365.112l-2.965-3.754q.956-.171 1.946-.288a4.013 4.013 0 0 0 1.384 2.528v1.4zM81.22 52.743l-3.023-1.056q.7-.691 1.309-1.419l3.728.691a25.934 25.934 0 0 1-2.014 1.784zm-23.968 7.622a42.587 42.587 0 0 0 3.673-.475l.4.792q-2 .286-4.063.428zm14.661-4.14l1.889.954q-1.724.768-3.574 1.4l-.945-1.1c.908-.39 1.786-.807 2.63-1.254zm-4.508 1.977l.857 1a49.553 49.553 0 0 1-4.974 1.165l-.428-.855a38.191 38.191 0 0 0 4.546-1.31zm11.72-3.93a34.617 34.617 0 0 1-3.171 1.864l-2.073-1.047a26.64 26.64 0 0 0 2.711-1.951l2.774.97c-.081.054-.159.111-.241.164zm-44.1 1.953c.844.447 1.721.866 2.628 1.249l-.944 1.1a41.075 41.075 0 0 1-3.574-1.4zm10.987 3.665c1.212.21 2.441.369 3.673.473l-.006.745a54.224 54.224 0 0 1-4.063-.425zm-2.362.475a48.677 48.677 0 0 1-4.97-1.168l.851-.993a38.4 38.4 0 0 0 4.547 1.307zm-13.306-7.226a26.708 26.708 0 0 0 2.712 1.951l-2.077 1.048a34.479 34.479 0 0 1-3.41-2.028zm54.407-3.832l-3.966-.735q.475-.714.867-1.45l4.7-.037a19.437 19.437 0 0 1-1.6 2.222zm2.618-4.131l-4.853.038q.245-.655.425-1.319l5.144-.621a15.4 15.4 0 0 1-.716 1.902zm1.323-5.974a13.905 13.905 0 0 1-.16 2.1l-5.2.629a14.125 14.125 0 0 0 .118-1.785c0-.149-.006-.3-.011-.451l5.248-.988c0 .167.004.331.004.495zm-5.446-1.4q-.115-.685-.3-1.366l4.913-1.99a14.6 14.6 0 0 1 .622 2.369zm-.907-3.17c-.19-.463-.408-.922-.646-1.375l4.161-2.708a17.689 17.689 0 0 1 1.265 2.148zm-1.623-3.013c-.308-.456-.644-.9-1-1.343l3.563-2.792q.761.755 1.42 1.543zm-2.267-2.761c-.294-.3-.6-.6-.922-.887l2.812-2.987q.795.587 1.519 1.2zm-2.38-2.114q-.79-.615-1.653-1.187l2.245-2.916q1.081.6 2.09 1.253zm-3.28-2.19q-.74-.423-1.524-.816l1.823-2.82q.947.4 1.855.839zm-3.261-1.625q-1.026-.44-2.094-.823l1.595-2.668c.767.238 1.523.491 2.261.764zm-3.945-1.43q-.971-.29-1.958-.53l.944-2.68q1.3.271 2.566.607zm-3.83-.937a41.262 41.262 0 0 0-2.625-.427l.3-2.648q1.65.176 3.256.449zm-4.494-.815a.954.954 0 0 0-.281-.213 3.7 3.7 0 0 0 .169-1.135 3.586 3.586 0 0 0-.193-1.124c.194.012.386.029.579.043zm-2.013-1.335a1.761 1.761 0 0 1-.544 1.291.95.95 0 0 0 .66 1.634h.247v3.8a2.131 2.131 0 0 1-.988 1.8.886.886 0 0 0-.079.058 1.705 1.705 0 0 1-2.14 0c-.026-.02-.052-.04-.08-.058a2.131 2.131 0 0 1-.988-1.8v-3.8h.247a.95.95 0 0 0 .66-1.634 1.775 1.775 0 0 1 1.3-3.053 1.793 1.793 0 0 1 1.704 1.761zm-5.285 1.121a.953.953 0 0 0-.281.213l-.275-2.436q.287-.021.573-.038a3.683 3.683 0 0 0-.018 2.26zm-2.449-2.05l.3 2.653c-.881.113-1.758.255-2.626.424l-.93-2.628a52.955 52.955 0 0 1 3.255-.449zm-5.146.808l.947 2.677q-.989.24-1.958.53l-1.555-2.6a46.04 46.04 0 0 1 2.569-.608zm-4.455 1.149l1.592 2.664q-1.069.383-2.092.826l-1.762-2.726a44.13 44.13 0 0 1 2.261-.764zm-4.064 1.479l1.822 2.82c-.523.261-1.033.533-1.525.815l-2.153-2.8q.902-.435 1.856-.835zm-3.572 1.726l2.242 2.912q-.861.572-1.651 1.188l-2.686-2.853a32.99 32.99 0 0 1 2.095-1.248zm-3.676 2.341l2.811 2.986q-.474.433-.921.887l-3.407-2.67q.723-.617 1.518-1.204zm-2.936 2.506l3.556 2.787q-.538.663-1 1.345l-3.98-2.591a23.5 23.5 0 0 1 1.425-1.542zm-2.575 3.057l4.155 2.7c-.238.452-.45.912-.641 1.378l-4.781-1.936a17.81 17.81 0 0 1 1.267-2.142zm-2.008 3.9l4.909 1.988c-.122.45-.218.907-.3 1.367l-5.231-.985a14.534 14.534 0 0 1 .622-2.373zm4.423 5.253c0 .151-.01.3-.01.451a14.108 14.108 0 0 0 .118 1.785l-5.2-.629a13.933 13.933 0 0 1-.161-2.1c0-.164.007-.328.012-.491zm.494 4.2q.18.664.425 1.319l-4.853-.045a15.416 15.416 0 0 1-.71-1.9zm1.288 3.217q.391.735.866 1.45l-3.975.737a19.343 19.343 0 0 1-1.6-2.224zM53.469 5.651c15.044 0 28.236 5.431 35.469 13.53-8.587-6.757-21.569-10.856-35.469-10.856S26.586 12.425 18 19.181c7.233-8.099 20.424-13.53 35.469-13.53zM12.22 31.565a13.629 13.629 0 0 1 3.88-8.154c7.955-8.113 22.057-13.186 37.369-13.186s29.414 5.073 37.369 13.186a13.625 13.625 0 0 1 3.88 8.153q.093.933.094 1.881a19.139 19.139 0 0 1-.943 5.907l-.224-3.367a.952.952 0 0 0-1.9.126l.231 3.46a.95.95 0 0 0 .947.887h.064a.941.941 0 0 0 .586-.26 25.356 25.356 0 0 1-7.057 9.929 17.473 17.473 0 0 0 4.073-10.923c0-12.8-15.447-23.266-35.216-23.906a3.609 3.609 0 0 0-1.767-.546 3.656 3.656 0 0 0-2.074.549c-1.095.034-2.2.1-3.282.2a54.482 54.482 0 0 0-5.46.767c-1.61.309-3.2.693-4.727 1.142a45.296 45.296 0 0 0-4.214 1.453 40.949 40.949 0 0 0-3.767 1.726 35.421 35.421 0 0 0-3.913 2.363 29.354 29.354 0 0 0-3.223 2.589 24.5 24.5 0 0 0-2.863 3.148 19.629 19.629 0 0 0-2.419 4.145 16.248 16.248 0 0 0-1.318 6.367 15.861 15.861 0 0 0 .318 3.153 18.386 18.386 0 0 0 3.662 7.688 25.3 25.3 0 0 1-6.965-9.847.943.943 0 0 0 .586.26h.064a.95.95 0 0 0 .947-.887l.231-3.46a.952.952 0 0 0-1.9-.126l-.22 3.371a19.139 19.139 0 0 1-.943-5.907q0-.948.094-1.881zm94.709 3.1c0-.081-.009-.505-.009-.505-.2-9.148-5.792-17.7-15.808-24.127C81.043 3.568 67.674.008 53.469.008S25.894 3.567 15.825 10.03C5.809 16.459.216 25.01.018 34.158c0 0-.009.424-.009.505a23.2 23.2 0 0 0 .56 5.048 33.831 33.831 0 0 0 3.945 10.278c1.268 9.451 6.91 18.172 15.909 24.576 9.063 6.45 20.8 10 33.046 10s23.983-3.552 33.046-10c9-6.4 14.641-15.125 15.909-24.576a33.839 33.839 0 0 0 3.945-10.278 23.175 23.175 0 0 0 .56-5.048zM53.469 1.909c28.305 0 51.353 14.565 51.555 32.517a26.624 26.624 0 0 1-.475 4.7c-3.434 15.954-25.03 28.293-51.08 28.293S5.822 55.08 2.388 39.119a26.591 26.591 0 0 1-.475-4.7c.203-17.945 23.25-32.51 51.556-32.51zm42.294 53.986a48.214 48.214 0 0 1-5.757 5.4 58.654 58.654 0 0 1-36.537 12.41 58.654 58.654 0 0 1-36.538-12.41 48.242 48.242 0 0 1-5.757-5.4 46.27 46.27 0 0 0 4.651 3.4c10.069 6.463 23.438 10.024 37.644 10.024s27.574-3.559 37.644-10.022a46.307 46.307 0 0 0 4.65-3.402zM85.412 73.019c-8.743 6.22-20.088 9.647-31.943 9.647s-23.2-3.427-31.944-9.647C14.441 67.976 9.548 61.453 7.389 54.3a48.347 48.347 0 0 0 8.357 8.481 60.561 60.561 0 0 0 37.723 12.825 60.561 60.561 0 0 0 37.723-12.825 48.365 48.365 0 0 0 8.357-8.481c-2.16 7.153-7.053 13.676-14.137 18.719zM27.726 19.797a.95.95 0 1 0 1.752-.737l-.95-2.257a.95.95 0 0 0-1.752.738zm50.243.507a.95.95 0 0 0 1.245-.507l.951-2.257a.95.95 0 0 0-1.752-.738l-.954 2.257a.951.951 0 0 0 .51 1.245zm-26.164-6.933h3.327a.95.95 0 1 0 0-1.9h-3.327a.95.95 0 1 0 0 1.9z" fill="#fff" fill-rule="evenodd"/>
</svg>
