<svg xmlns="http://www.w3.org/2000/svg" viewBox="0 0 84.62 90.18"><path fill="#0091EA" d="M21.61 23.24c0 8.36 12.69 8.43 12.69-.01-.02-8.46-12.69-8.35-12.69.01zm2.64-.01c0-4.93 7.42-4.93 7.41.01-.01 4.9-7.42 4.89-7.41-.01zM54.72 6.85c-3.5.01-6.34 2.85-6.34 6.35.02 8.4 12.69 8.36 12.68-.02 0-6.79-7.58-6.33-6.34-6.33zm0 10.04s-.01 0 0 0c-2.05-.01-3.71-1.67-3.7-3.71.02-4.91 7.4-4.85 7.4.01 0 2.04-1.66 3.7-3.7 3.7zm6.78 29.26c.01 8.39 12.69 8.38 12.68-.01 0-4.15-4.1-7.24-8.09-6.09a6.34 6.34 0 0 0-6.34-6.33c-4.38 0-7.5 4.54-5.91 8.63-5.74-.78-9.48 6.25-5.52 10.56-3.09 1.18-4.78 4.65-3.8 7.81-1.3-.29-2.65-.17-3.88.35-.5-3.9-4.56-6.45-8.3-5.2a6.34 6.34 0 0 0-4.33-5.57c6.14-2.85 4.09-12.09-2.67-12.09-7.17 0-8.79 10.1-1.99 12.37-4.34 2.02-4.9 8.16-.98 10.93-5.41 3.29-3.1 11.74 3.31 11.74 3.21 0 5.86-2.39 6.28-5.5 1.56.64 3.33.62 4.88-.04 1.17 9.14 15.03 5.9 12.33-2.7.96.21 1.95.2 2.9-.03-1.28 4.03 1.82 8.26 6.04 8.26 4.15 0 7.23-4.09 6.09-8.09 8.55.43 8.98-12.66.33-12.66-4.15 0-7.23 4.09-6.09 8.09-.62-.03-1.23.02-1.84.17.68-2.15.15-4.54-1.38-6.2 3.24-1.24 4.91-4.97 3.65-8.21.89.12 1.77.06 2.63-.19zm10.04 0c0 4.9-7.42 4.91-7.42 0 0-4.9 7.42-4.91 7.42 0zm-11.79-9.79c4.9 0 4.91 7.42 0 7.42-4.9 0-4.91-7.42 0-7.42zm-38.1 8.2c0-4.89 7.4-4.89 7.4 0 0 4.88-7.4 4.92-7.4 0zm8.08 11.76c0 4.84-7.4 4.94-7.4 0 0-4.89 7.4-4.89 7.4 0zm-4.04 14.29c-4.89 0-4.89-7.4 0-7.4 4.85 0 4.93 7.4 0 7.4zm8.67-12.43c4.89 0 4.89 7.4 0 7.4-4.91 0-4.87-7.4 0-7.4zm5.07 8.73c0-4.89 7.4-4.89 7.4 0 0 4.88-7.4 4.9-7.4 0zm11.14-11.78c4.89 0 4.89 7.4 0 7.4s-4.89-7.4 0-7.4zm13.97.01c4.89 0 4.9 7.4 0 7.4-4.89 0-4.89-7.4 0-7.4zm-6.41 15.47c-4.89 0-4.89-7.4 0-7.4s4.89 7.4 0 7.4zm-8.85-21.98c0-4.89 7.4-4.89 7.4 0s-7.4 4.89-7.4 0z"/><path fill="#FFF" d="M42.31 31.35c-9.32.02-9.15 13.98.02 13.96 9.28-.02 9.19-13.96-.02-13.96zm0 2.64c5.75 0 5.74 8.68 0 8.68s-5.75-8.68 0-8.68zm22.04 37.74l20.28-35.1L63.47.01H21.15L-.01 36.63l20.28 35.1-6.86 11.4h-7.8v7.04h73.4v-7.04h-7.8l-6.86-11.4zM3.04 36.63L22.68 2.65h39.26l19.64 33.98-18.82 32.45-13.63-22.59c7.61-6.34 3.13-18.81-6.81-18.81-9.93 0-14.4 12.45-6.83 18.79l-13.61 22.6L3.04 36.63zm34.65 11.29c2.49 1.24 5.96 1.48 8.99.11l13.9 22.57H24.04l13.65-22.68zm4.61-17.61c10.55-.02 10.69 16.02.01 16.02-10.57 0-10.63-16-.01-16.02zM22.45 73.24h39.72l5.95 9.89H16.49l5.96-9.89zm53.91 14.29H8.26v-1.76h68.1v1.76z"/></svg>