<svg xmlns="http://www.w3.org/2000/svg" viewBox="0 0 107.006 84.273"><path fill="#FFF" d="M83.985 54.607c17.068-11.592 17.086-30.601 0-42.22-27.205-18.482-73.68-5.213-73.68 21.11 0 26.356 46.523 39.56 73.68 21.11zm-32.33 6.65l.01-.72c1.5.073 2.76.032 3.76 0l.01.72h-3.78zm-27.89-10.25l3.74-.69c.41.48.84.96 1.31 1.42l-3.03 1.06c-.7-.56-1.38-1.16-2.02-1.79zm2-8.13c-2.434-10.706 9.479-19.582 23.73-20.97v1.92c-9.069.843-19.89 6.603-19.89 15.68 0 10.319 13.521 16.112 23.92 15.9 10.661.198 23.92-5.751 23.92-15.91 0-9.049-10.777-14.821-19.88-15.67v-1.91c11.908 1.036 24.03 8.099 24.03 18.3 0 10.261-12.373 17.624-25.56 18.4-13.458.786-27.855-5.136-30.27-15.74zm28.49-13.63v3.21c0 .939-1.42.939-1.42 0v-3.21c.478.103.919.108 1.42 0zm3.29-3.51c.66.08 1.31.17 1.95.29l-2.97 3.75c-.12-.04-.24-.08-.37-.11v-1.4a4.042 4.042 0 0 0 1.39-2.53zm-23.23 6.98l12.48 1.51c.05.6.25 1.17.58 1.67l-15.25 6.86c-1.361-3.573-.226-7.473 2.19-10.04zm11.21-6.25l3.28 4.15a4.83 4.83 0 0 0-1.62 1.74l-11.11-1.34c2.78-2.2 6.01-3.75 9.45-4.55zm10.63 5.19c4.349 1.74 1.785 5.055-2.62 5.055-4.427 0-6.93-3.327-2.61-5.055 0 4.592 5.23 4.614 5.23 0zm-7.33 5.66c.4.26.82.48 1.26.66l-6.83 13.9c-4.7-1.59-8.4-4.23-10.31-7.42l15.88-7.14zm3.13 1.17c1.05.17 2.13.17 3.18 0l6.85 13.94a33.745 33.745 0 0 1-16.88 0l6.85-13.94zm11.87 13.39l-6.83-13.9c.44-.18.87-.4 1.26-.66l15.87 7.14c-1.9 3.2-5.59 5.84-10.3 7.42zm11.14-9.13l-15.25-6.86c.33-.5.53-1.07.58-1.67l12.48-1.51c2.428 2.579 3.553 6.497 2.19 10.04zm-15.06-10.39c-.39-.7-.95-1.3-1.62-1.74l3.28-4.15c3.45.8 6.68 2.35 9.45 4.54l-11.11 1.35zm-8.97-2.69c-.12.03-.24.07-.37.11l-2.97-3.75c.64-.11 1.29-.21 1.95-.29.13.98.63 1.89 1.38 2.53l.01 1.4zm30.36 23.13l-3.02-1.06c.47-.46.9-.93 1.31-1.42l3.73.69c-.65.63-1.32 1.23-2.02 1.79zm-23.97 7.62c1.23-.1 2.46-.26 3.67-.47l.4.79c-1.33.19-2.69.33-4.06.43l-.01-.75zm14.66-4.14l1.89.95c-1.15.51-2.34.98-3.57 1.4l-.94-1.1c.9-.39 1.78-.81 2.62-1.25zm-4.5 1.97l.86 1c-1.64.47-3.3.86-4.97 1.17l-.43-.85c1.53-.35 3.05-.79 4.54-1.32zm11.72-3.93c-1.02.68-2.08 1.3-3.17 1.86l-2.07-1.05c.94-.59 1.85-1.24 2.71-1.95l2.77.97c-.08.06-.16.12-.24.17zm-44.1 1.96c.84.45 1.72.87 2.63 1.25l-.94 1.1c-1.21-.41-2.41-.88-3.57-1.4l1.88-.95zm10.98 3.66c1.21.21 2.44.37 3.67.47l-.01.74c-1.36-.09-2.71-.23-4.06-.42l.4-.79zm-2.36.48c-1.68-.3-3.33-.69-4.97-1.17l.85-.99c1.49.53 3.01.97 4.55 1.31l-.43.85zm-13.3-7.23c.86.71 1.77 1.36 2.71 1.95l-2.08 1.05c-1.17-.61-2.31-1.29-3.41-2.03l2.78-.97zm54.4-3.83l-3.97-.74c.32-.48.61-.96.87-1.45l4.7-.04c-.48.78-1.01 1.53-1.6 2.23zm2.62-4.13l-4.85.04c.16-.44.31-.88.43-1.32l5.14-.62c-.2.65-.44 1.28-.72 1.9zm1.16-3.88l-5.2.63c.14-1.033.11-1.422.11-2.23l5.25-.99c0 .927-.001 1.59-.16 2.59zm-5.28-3.5c-.08-.46-.18-.91-.3-1.37l4.91-1.99c.27.77.48 1.56.62 2.37l-5.23.99zm-.91-3.17c-.19-.46-.41-.92-.65-1.38l4.16-2.71c.47.69.89 1.4 1.26 2.15l-4.77 1.94zm-1.62-3.01c-.31-.46-.64-.9-1-1.34l3.56-2.79c.51.5.98 1.02 1.42 1.54l-3.98 2.59zm-2.27-2.76c-.29-.3-.6-.6-.92-.89l2.81-2.99c.53.39 1.04.79 1.52 1.2l-3.41 2.68zm-2.38-2.11c-.53-.41-1.08-.81-1.65-1.19l2.25-2.92c.72.4 1.42.82 2.09 1.25l-2.69 2.86zm-3.28-2.19c-.49-.28-1-.55-1.52-.82l1.82-2.82c.63.27 1.25.55 1.86.84l-2.16 2.8zm-3.26-1.63c-.68-.29-1.38-.57-2.09-.82l1.6-2.67c.77.24 1.52.49 2.26.76l-1.77 2.73zm-3.95-1.43c-.65-.19-1.3-.37-1.96-.53l.94-2.68c.87.18 1.72.38 2.57.61l-1.55 2.6zm-3.83-.94c-.87-.17-1.75-.31-2.63-.43l.3-2.65c1.1.12 2.19.27 3.26.45l-.93 2.63zm-4.49-.81a.826.826 0 0 0-.28-.21 3.63 3.63 0 0 0-.02-2.26c.19.01.39.03.58.04l-.28 2.43zm-2.55-.05c-.586.555-.326 1.63.91 1.63v3.8c0 2.908-4.28 2.93-4.28 0v-3.8c1.245 0 1.5-1.102.91-1.63-1.181-1.131-.32-3.118 1.3-3.05 1.54.085 2.283 1.959 1.16 3.05zm-4.75-.17a.994.994 0 0 0-.28.21l-.27-2.43c.19-.01.38-.03.57-.04-.24.74-.25 1.53-.02 2.26zm-2.45-2.05l.3 2.65c-.88.11-1.76.25-2.63.42l-.93-2.63c1.09-.17 2.17-.32 3.26-.44zm-5.14.81l.95 2.68c-.66.16-1.31.34-1.96.53l-1.56-2.6c.85-.23 1.71-.43 2.57-.61zm-4.46 1.15l1.59 2.66c-.71.26-1.41.53-2.09.83l-1.76-2.73c.75-.27 1.5-.52 2.26-.76zm-4.06 1.48l1.82 2.82c-.52.26-1.03.53-1.53.82l-2.15-2.8c.6-.29 1.22-.57 1.86-.84zm-3.57 1.73l2.24 2.91c-.57.38-1.12.78-1.65 1.19l-2.69-2.85c.68-.45 1.38-.86 2.1-1.25zm-3.68 2.34l2.81 2.99c-.32.29-.62.58-.92.89l-3.41-2.67c.49-.42.99-.82 1.52-1.21zm-2.94 2.5l3.56 2.79c-.36.44-.69.89-1 1.34l-3.98-2.59c.45-.53.93-1.04 1.42-1.54zm-2.57 3.06l4.16 2.7c-.24.45-.45.91-.64 1.38l-4.78-1.94c.36-.74.79-1.46 1.26-2.14zm-2.01 3.9l4.91 1.99c-.12.45-.22.91-.3 1.37l-5.23-.99c.14-.81.35-1.6.62-2.37zm4.42 5.25c0 .815-.029 1.204.11 2.23l-5.2-.63c-.175-1.097-.15-1.642-.15-2.59l5.24.99zm.5 4.2c.12.44.26.88.42 1.32l-4.85-.04c-.28-.62-.52-1.25-.71-1.9l5.14.62zm1.29 3.22c.26.49.55.97.87 1.45l-3.98.74a19.282 19.282 0 0 1-1.6-2.22l4.71.03zm63.65-27.94c-18.392-14.452-52.556-14.457-70.94.01 16.078-18.035 54.85-18.036 70.94-.01zm-72.84 4.24c17.2-17.546 57.511-17.575 74.74 0 4.199 4.237 4.87 10.292 3.03 15.94l-.22-3.37c-.071-1.238-1.973-1.15-1.9.12l.23 3.46c.047.787 1.002 1.19 1.6.63a25.345 25.345 0 0 1-7.06 9.93c2.57-3.07 4.01-6.92 4.07-10.92 0-12.8-15.45-23.27-35.22-23.91a3.603 3.603 0 0 0-3.84 0c-7.167.195-14.92 1.892-21.45 5.29-14.689 7.617-16.987 20.444-9.75 29.45a25.222 25.222 0 0 1-6.96-9.85c.59.553 1.526.169 1.59-.63l.23-3.46c.073-1.272-1.83-1.363-1.9-.12l-.22 3.37c-1.836-5.637-1.166-11.715 3.03-15.93zm75.01-13.39c-39.414-25.285-109.818.345-86.59 39.97 6.047 44.997 91.708 46.27 97.92 0 9.179-15.658 3.74-30.3-11.33-39.97zm-37.64-8.12c28.3 0 51.35 14.56 51.55 32.52-.265 20.983-27.095 32.99-51.55 32.99-26.05 0-47.65-12.34-51.08-28.3-4.123-21.306 22.045-37.21 51.08-37.21zm42.29 53.99c-21.514 23.765-63.017 23.767-84.59 0 21.883 18.162 63.516 17.633 84.59 0zm-88.37-1.6c21.637 28.137 70.139 28.646 92.16.01-11.47 37.915-80.922 37.189-92.16-.01zm20.34-34.5c.481 1.154 2.232.427 1.75-.73l-.95-2.26c-.475-1.14-2.247-.454-1.76.74l.96 2.25zm51.48 0l.95-2.26c.483-1.164-1.266-1.901-1.76-.74l-.95 2.26c-.462 1.192 1.293 1.884 1.76.74zm-27.4-6.43h3.33c1.253 0 1.261-1.9 0-1.9h-3.33c-1.253 0-1.261 1.9 0 1.9z"/><circle fill="#0091EA" cx="77.465" cy="35.907" r="7"/></svg>