<svg xmlns="http://www.w3.org/2000/svg" viewBox="0 0 92 87.03"><path fill="#0091EA" d="M70.54 22.87c-8.11 0-8.11 9.2 0 9.2 8.09 0 8.09-9.2 0-9.2zm-3.08 4.6c0-2.01 6.14-2.01 6.14 0s-6.14 2.01-6.14 0zm-56.73 2.36c-6.1 0-6.09 12.21 0 12.21 6.08 0 6.12-12.21 0-12.21zm0 9.16c-2 0-2.02-6.11 0-6.11s2 6.11 0 6.11zm9.2 6.1c0 8.1 9.2 8.11 9.2 0 0-8.1-9.2-8.09-9.2 0zm4.6 3.05c-2 0-2.01-6.1 0-6.1s2 6.1 0 6.1zm-4.6 13.74c0 8.1 9.2 8.11 9.2 0 0-8.1-9.2-8.09-9.2 0zm4.6 3.05c-2 0-2.01-6.1 0-6.1s2 6.1 0 6.1zM6.13 52.72c0 8.1 9.2 8.11 9.2 0 0-8.1-9.2-8.09-9.2 0zm4.6 3.06c-2 0-2.02-6.11 0-6.11s2 6.11 0 6.11zm41.4-18.32c0 8.09 9.2 8.09 9.2 0 0-8.11-9.2-8.11-9.2 0zm4.6 3.05c-2.01 0-2.01-6.1 0-6.1s2 6.1 0 6.1zm-13.8 13.74c-6.1 0-6.09 12.21 0 12.21 6.08 0 6.12-12.21 0-12.21zm0 9.16c-2 0-2.02-6.11 0-6.11 2.03 0 2.01 6.11 0 6.11zm-3.06-44.27c0-6.07-12.26-6.07-12.26 0 0 6.04 12.26 6.09 12.26 0zm-9.2 0c0-2 6.14-1.99 6.14 0s-6.14 2.02-6.14 0zm44.46 31.23c-6.1 0-6.09 12.21 0 12.21 6.08 0 6.11-12.21 0-12.21zm0 9.15c-2 0-2.01-6.1 0-6.1 1.99 0 2.02 6.1 0 6.1z"/><path fill="#FFF" d="M88.91 23.99L61.32 8.29c-3.19-1.82-5.98-.07-8.74 1.5L36.78.8a6.178 6.178 0 0 0-6.09 0L3.09 16.5C1.22 17.57.01 19.64 0 21.8v35.9c0 2.19 1.18 4.22 3.09 5.3l27.6 15.7c3.18 1.79 5.97.07 8.74-1.51l15.8 9a6.11 6.11 0 0 0 6.08 0l27.6-15.71A6.098 6.098 0 0 0 92 65.19v-35.9c0-2.28-1.31-4.29-3.09-5.3zM59.79 10.94c.4.23 27.56 15.64 27.91 15.95l-20.24 11.5c0-23.46 2.11-18.93-11.79-26.84 1-.57 2.36-1.62 4.12-.61zM32.2 76.04C2.33 59.06 3.08 60.15 3.06 57.7V22.22c29.82 16.96 27.9 15.98 29.13 16.3v37.52h.01zM4.28 19.4c.29-.26 27.59-15.76 27.93-15.95 2.12-1.18.79-1.28 30.64 15.7.12.08.23.16.33.25L35.33 35.24c-2.23 1.22-1.02 1.23-31.05-15.84zm52.45 64.13l-14.21-8.1 14.21-8.08v16.18zm-21.46-7.49V38.51c1.21-.29-.59.61 29.13-16.29V57.7c0 2.44.73 1.35-29.13 18.34zm53.66-10.85c0 2.43.74 1.34-29.13 18.34V65.6c9.19-5.23 7.66-2.67 7.66-23.69l21.47-12.2v35.48z"/></svg>