<svg xmlns="http://www.w3.org/2000/svg" width="92" height="87.03" viewBox="0 0 92 87.03">
    <path fill="#0091EA" d="M76.64 27.47c0-2.58-2.68-4.6-6.1-4.6-3.42 0-6.11 2.02-6.11 4.6s2.69 4.6 6.11 4.6c3.42 0 6.1-2.02 6.1-4.6zm-9.18 0c0-.62 1.2-1.53 3.07-1.53s3.07.91 3.07 1.53S72.4 29 70.53 29s-3.07-.91-3.07-1.53zm-56.73 2.36c-2.58 0-4.6 2.68-4.6 6.1s2.02 6.11 4.6 6.11 4.6-2.68 4.6-6.11-2.02-6.1-4.6-6.1zm0 9.16c-.63 0-1.53-1.19-1.53-3.06s.91-3.05 1.53-3.05 1.53 1.19 1.53 3.05-.9 3.06-1.53 3.06zm13.8 0c-2.58 0-4.6 2.68-4.6 6.1s2.02 6.11 4.6 6.11 4.6-2.68 4.6-6.11-2.02-6.1-4.6-6.1zm0 9.15c-.63 0-1.53-1.19-1.53-3.05s.91-3.05 1.53-3.05 1.53 1.19 1.53 3.05-.9 3.05-1.53 3.05zm0 7.64c-2.58 0-4.6 2.68-4.6 6.1s2.02 6.11 4.6 6.11 4.6-2.68 4.6-6.11-2.02-6.1-4.6-6.1zm0 9.15c-.63 0-1.53-1.19-1.53-3.05s.91-3.05 1.53-3.05 1.53 1.19 1.53 3.05-.9 3.05-1.53 3.05zm-13.8-18.31c-2.58 0-4.6 2.68-4.6 6.1s2.02 6.11 4.6 6.11 4.6-2.68 4.6-6.11-2.02-6.1-4.6-6.1zm0 9.16c-.63 0-1.53-1.19-1.53-3.06s.91-3.05 1.53-3.05 1.53 1.19 1.53 3.05-.9 3.06-1.53 3.06zm46-24.43c-2.58 0-4.6 2.69-4.6 6.11s2.02 6.1 4.6 6.1 4.6-2.68 4.6-6.1-2.02-6.11-4.6-6.11zm0 9.16c-.62 0-1.53-1.19-1.53-3.05 0-1.86.91-3.05 1.53-3.05s1.53 1.19 1.53 3.05c0 1.86-.9 3.05-1.53 3.05zm-13.8 13.74c-2.58 0-4.6 2.68-4.6 6.1s2.02 6.11 4.6 6.11 4.6-2.68 4.6-6.11-2.02-6.1-4.6-6.1zm0 9.16c-.62 0-1.53-1.19-1.53-3.06s.91-3.05 1.53-3.05 1.54 1.19 1.54 3.05c0 1.86-.91 3.06-1.54 3.06zm-3.06-44.27c0-2.56-2.69-4.58-6.13-4.58s-6.13 2.02-6.13 4.58 2.69 4.58 6.13 4.58 6.13-2.01 6.13-4.58zm-6.14 1.53c-1.87 0-3.06-.9-3.06-1.53s1.19-1.52 3.07-1.52 3.07.9 3.07 1.52-1.21 1.53-3.08 1.53zm41.4 29.7c-2.58 0-4.6 2.68-4.6 6.1s2.02 6.11 4.6 6.11c2.58 0 4.6-2.69 4.6-6.11s-2.02-6.1-4.6-6.1zm0 9.15c-.63 0-1.53-1.19-1.53-3.05s.91-3.05 1.53-3.05c.63 0 1.53 1.19 1.53 3.05s-.9 3.05-1.53 3.05z"/>
    <path fill="#FFF" d="M91.41 26.68c-.64-1.14-1.27-1.99-2.5-2.69L61.32 8.29c-3.19-1.82-5.98-.07-8.74 1.5L36.78.8a6.178 6.178 0 0 0-6.09 0L3.09 16.5C1.22 17.57.01 19.64 0 21.8v35.9c0 2.19 1.18 4.22 3.09 5.3l27.6 15.7c3.18 1.79 5.97.07 8.74-1.51l15.8 9a6.11 6.11 0 0 0 6.08 0l27.6-15.71A6.098 6.098 0 0 0 92 65.19v-35.9c0-.9-.26-2.03-.59-2.61zM56.75 10.93c.94-.53 2.1-.53 3.04.01l27.6 15.7c.11.08.21.16.31.25l-20.24 11.5V21.8c0-.92-.38-2.08-.66-2.73-.48-1.11-1.38-1.97-2.43-2.57l-8.7-4.95 1.08-.62zM32.2 76.04L4.61 60.35a3.077 3.077 0 0 1-1.55-2.65V22.22l27.59 15.69c.49.27 1 .47 1.54.61v37.52h.01zM4.28 19.4c.1-.09.21-.17.33-.25l27.6-15.7c.95-.53 2.1-.53 3.04 0l27.6 15.7c.12.08.23.16.33.25L35.33 35.24c-.99.54-2.17.54-3.16.01L4.28 19.4zm52.45 64.13l-14.21-8.1 14.21-8.08v16.18zm-21.46-7.49V38.51c.54-.13 1.07-.34 1.56-.61L64.4 22.22V57.7c0 1.1-.6 2.11-1.55 2.65L35.27 76.04zm53.66-10.85c0 1.09-.59 2.1-1.54 2.64L59.8 83.53V65.6l4.57-2.6a6.093 6.093 0 0 0 3.09-5.3V41.91l21.47-12.2v35.48z"/>
</svg>
