<svg xmlns="http://www.w3.org/2000/svg" viewBox="0 0 89.12 93.62"><path fill="#FFF" d="M85.41 21.36L45.22.76a6.776 6.776 0 0 0-9.125 2.93l-.005.01-.03.05c-2.545-.853-9.548-4.467-12.43 4.18l-5.4-.81a6.785 6.785 0 0 0-7.72 5.699v.001l-.01.08H6.8a6.803 6.803 0 0 0-6.79 6.79v67.13a6.803 6.803 0 0 0 6.79 6.79h45.16c2.7 0 5.14-1.6 6.22-4.07.09-.19 30.18-59.04 30.18-59.04 1.726-3.368.362-7.458-2.95-9.14zm-18.85-.1l-7.81 51.89V19.69c0-1.74-.67-3.42-1.87-4.68l5.71.86c2.559.372 4.369 2.797 3.97 5.39zm2.04.3c.27-1.78-.18-3.59-1.25-5.04-.02-.02-.04-.05-.06-.08l7.45 2.51c2.47.83 3.81 3.51 2.98 5.98 0 .01 0 .01-.01.02L60.32 76.56l8.28-55zM44.28 2.59l22.4 11.48-28.64-9.65c1.246-2.158 4.013-2.987 6.24-1.83zM31.931 4.537l.009.003 24.93 8.39-31.18-4.69c1.231-3.595 3.906-4.489 6.241-3.703zM17.93 9.15l24.91 3.75H12.59a4.737 4.737 0 0 1 5.34-3.75zm34.03 82.4H6.8c-2.61 0-4.73-2.12-4.73-4.73V19.69c0-2.61 2.12-4.73 4.73-4.73h45.16c2.61 0 4.73 2.12 4.73 4.73v67.13c0 2.671-2.168 4.729-4.73 4.73zm34.57-61.99L62.6 76.23 79.66 25.6c.56-1.65.46-3.45-.28-5.02l5.1 2.61a4.74 4.74 0 0 1 2.05 6.37z"/><path fill="#0091EA" d="M48.52 77.16v-1.18h.76c1.354 0 1.371-2.05 0-2.05h-3.56c-1.367 0-1.357 2.05 0 2.05h.75v1.18c-4.916-1.857-7.797 5.484-3.01 7.54a4.06 4.06 0 0 0 4.04 4.56 4.064 4.064 0 0 0 4.03-4.56c4.842-2.073 1.88-9.387-3.01-7.54zm3.02 5c-.655.893-1.539.817-2.78.95l.57 1.28a2.003 2.003 0 0 1-1.84 2.81c-1.11 0-2.01-.9-2.01-2 0-.613.265-1.024.74-2.09l-1.4-.15a2.016 2.016 0 0 1-1.77-2.22c.214-1.811 2.533-2.426 3.6-.97l.83 1.12.82-1.12a2.013 2.013 0 1 1 3.24 2.39zM10.25 29.35v1.18h-.76c-1.354 0-1.371 2.05 0 2.05h3.56c1.367 0 1.357-2.05 0-2.05h-.75v-1.18c4.916 1.857 7.797-5.484 3.01-7.54a4.06 4.06 0 0 0-4.04-4.56 4.063 4.063 0 0 0-4.03 4.56c-4.842 2.073-1.88 9.387 3.01 7.54zm-3.02-5c.655-.893 1.539-.817 2.78-.95l-.57-1.28a2.002 2.002 0 0 1 1.024-2.64c1.324-.584 2.826.385 2.826 1.83 0 .613-.265 1.024-.74 2.09l1.4.15c2.643.312 2.179 4.276-.45 3.99-1.102-.12-1.533-1.006-2.21-1.92l-.82 1.12c-1.579 2.141-4.821-.247-3.24-2.39zm28.39 23.93c.862-3.963-2.383-7.702-6.49-7.54-3.927.154-6.8 3.812-5.99 7.54a6.39 6.39 0 0 0-4.163 8.021c1.262 3.985 5.909 5.659 9.373 3.559v4.11h-2.12c-1.362 0-1.362 2.06 0 2.06h6.3c1.362 0 1.362-2.06 0-2.06h-2.12v-4.11c4.189 2.539 9.67-.484 9.67-5.49 0-2.78-1.81-5.25-4.46-6.09zm-1.93 10.43c-2.442.003-3.442-1.709-4.31-2.87l-.82 1.11a4.331 4.331 0 0 1-6.055.914 4.33 4.33 0 0 1-.919-6.059c1.272-1.725 2.889-1.722 4.394-1.895l-.57-1.28c-1.27-2.872.845-6.093 3.97-6.09a4.336 4.336 0 0 1 4.341 4.331c.001 1.122-.364 1.744-.941 3.039l1.4.16c5.405.613 4.906 8.64-.49 8.64z"/></svg>