<svg xmlns="http://www.w3.org/2000/svg" width="831.03" height="503" viewBox="0 0 831.03 503">
  <metadata><?xpacket begin="﻿" id="W5M0MpCehiHzreSzNTczkc9d"?>
<x:xmpmeta xmlns:x="adobe:ns:meta/" x:xmptk="Adobe XMP Core 5.6-c142 79.160924, 2017/07/13-01:06:39        ">
   <rdf:RDF xmlns:rdf="http://www.w3.org/1999/02/22-rdf-syntax-ns#">
      <rdf:Description rdf:about=""/>
   </rdf:RDF>
</x:xmpmeta>
                                                                                                    
                                                                                                    
                                                                                                    
                                                                                                    
                                                                                                    
                                                                                                    
                                                                                                    
                                                                                                    
                                                                                                    
                                                                                                    
                                                                                                    
                                                                                                    
                                                                                                    
                                                                                                    
                                                                                                    
                                                                                                    
                                                                                                    
                                                                                                    
                                                                                                    
                                                                                                    
                           
<?xpacket end="w"?></metadata>
<defs>
    <style>
      .cls-1 {
        fill: #419eff;
        fill-rule: evenodd;
        opacity: 0.12;
      }
    </style>
  </defs>
  <path id="Rectangle_4_copy_15" data-name="Rectangle 4 copy 15" class="cls-1" d="M1793.04,318.485l41.49-14.513,41.5,14.513L1834.53,333Zm-718,142,41.49-14.513,41.5,14.513L1116.53,475ZM1057,508.5l29.5-10.5,29.5,10.5L1086.5,519Zm551,42,29.5-10.5,29.5,10.5L1637.5,561Zm127-423,29.5-10.5,29.5,10.5L1764.5,138ZM1307,67l25-9,25,9-25,9ZM1045,217l25-9,25,9-25,9Zm585,216.5,20.5-7.5,20.5,7.5-20.5,7.5Zm-7,22,15.5-5.5,15.5,5.5-15.5,5.5Zm196-324,15.5-5.5,15.5,5.5-15.5,5.5Zm-586,284,15.5-5.5,15.5,5.5-15.5,5.5Z" transform="translate(-1045 -58)"/>
</svg>
