<svg xmlns="http://www.w3.org/2000/svg" width="838" height="503" viewBox="0 0 838 503"><path d="M97.036 402.48l41.5-14.51 41.5 14.51-41.5 14.52zM79 450.5l29.5-10.5 29.5 10.5-29.5 10.5zm305-187l29.5-10.5 29.5 10.5-29.5 10.5zm246 229l29.5-10.5 29.5 10.5-29.5 10.5zm-78-367l29.5-10.5 29.5 10.5-29.5 10.5zm122 91l29.5-10.5 29.5 10.5-29.5 10.5zm-268 124l29.5-10.5 29.5 10.5-29.5 10.5zM329 9l25-9 25 9-25 9zM67 159l25-9 25 9-25 9zm585 216.5l20.5-7.5 20.5 7.5-20.5 7.5zm145-202l20.5-7.5 20.5 7.5-20.5 7.5zm-599 297l20.5-7.5 20.5 7.5-20.5 7.5zm102-301l20.5-7.5 20.5 7.5-20.5 7.5zm345 228l15.5-5.5 15.5 5.5-15.5 5.5zm-645 59l15.5-5.5 15.5 5.5-15.5 5.5zm255-99l15.5-5.5 15.5 5.5-15.5 5.5zm434-66l15.5-5.5 15.5 5.5-15.5 5.5zm-287 166l15.5-5.5 15.5 5.5-15.5 5.5zm-197-354l15.5-5.5 15.5 5.5-15.5 5.5z" fill="#40afff" opacity=".15"/></svg>