<svg xmlns="http://www.w3.org/2000/svg" width="831.03" height="503" viewBox="0 0 831.03 503"><path d="M748.04 260.485l41.49-14.513 41.5 14.513L789.53 275zm-718 142l41.49-14.513 41.5 14.513L71.53 417zM12 450.5L41.5 440 71 450.5 41.5 461zm551 42l29.5-10.5 29.5 10.5-29.5 10.5zm127-423L719.5 59 749 69.5 719.5 80zM262 9l25-9 25 9-25 9zM0 159l25-9 25 9-25 9zm585 216.5l20.5-7.5 20.5 7.5-20.5 7.5zm-7 22l15.5-5.5 15.5 5.5-15.5 5.5zm196-324l15.5-5.5 15.5 5.5-15.5 5.5zm-586 284l15.5-5.5 15.5 5.5-15.5 5.5z" fill="#419eff" opacity=".12"/></svg>