<svg xmlns="http://www.w3.org/2000/svg" width="831" height="503" viewBox="0 0 831 503">
    <path d="M748 260.5l41.5-14.5 41.5 14.5-41.5 14.5-41.5-14.5zm-718 142L71.5 388l41.5 14.5L71.5 417 30 402.5zm-18 48L41.5 440 71 450.5 41.5 461 12 450.5zm551 42l29.5-10.5 29.5 10.5-29.5 10.5-29.5-10.5zm127-423L719.5 59 749 69.5 719.5 80 690 69.5zM262 9l25-9 25 9-25 9-25-9zM0 159l25-9 25 9-25 9-25-9zm585 216.5l20.5-7.5 20.5 7.5-20.5 7.5-20.5-7.5zm-7 22l15.5-5.5 15.5 5.5-15.5 5.5-15.5-5.5zm196-324l15.5-5.5 15.5 5.5-15.5 5.5-15.5-5.5zm-586 284l15.5-5.5 15.5 5.5-15.5 5.5-15.5-5.5z" opacity=".12" fill="#419eff"/>
</svg>
