<svg xmlns="http://www.w3.org/2000/svg" width="437" height="326" viewBox="0 0 437 326">
    <path fill="none" stroke="#4E83CB" stroke-miterlimit="10" d="M53 324h41l97-50.94M375 324h-41l-88-51m189-98H259M242 72.99L336 2h39M193 72L96 2H55"/>
    <path fill="#4E83CB" d="M242 71c1.1-.02 2.02.85 2.04 1.95.02 1.1-.85 2.02-1.95 2.04H242c-1.1-.02-1.98-.94-1.96-2.04.03-1.06.89-1.93 1.96-1.95zM375 0c1.1-.02 2.02.85 2.04 1.95s-.85 2.02-1.95 2.04H375c-1.1-.02-1.98-.94-1.96-2.04.03-1.06.89-1.93 1.96-1.95zm0 322c1.1-.02 2.02.85 2.04 1.95.02 1.1-.85 2.02-1.95 2.04H375c-1.1-.02-1.98-.94-1.96-2.04.03-1.06.89-1.93 1.96-1.95zm60-149c1.1-.03 2.02.85 2.04 1.95.03 1.1-.85 2.02-1.95 2.04H435c-1.1-.02-1.98-.94-1.96-2.04.03-1.06.89-1.93 1.96-1.95zm-176 0c1.1-.03 2.02.85 2.04 1.95.03 1.1-.85 2.02-1.95 2.04H259c-1.1-.02-1.98-.94-1.96-2.04.03-1.06.89-1.93 1.96-1.95zm-13 98c1.1-.03 2.02.85 2.05 1.95.03 1.1-.85 2.02-1.95 2.05h-.09a2 2 0 0 1-1.95-2.05c.01-1.06.87-1.92 1.94-1.95zm-55 0c1.1-.03 2.02.85 2.05 1.95.03 1.1-.85 2.02-1.95 2.05h-.09a2 2 0 0 1-1.95-2.05c.01-1.06.87-1.92 1.94-1.95zM53 322c1.1-.02 2.02.85 2.04 1.95.02 1.1-.85 2.02-1.95 2.04H53c-1.1-.02-1.98-.94-1.96-2.04.03-1.06.89-1.93 1.96-1.95zM193 70c1.1-.02 2.02.85 2.04 1.95.02 1.1-.85 2.02-1.95 2.04H193c-1.1-.02-1.98-.94-1.96-2.04.03-1.06.89-1.93 1.96-1.95zM55 0c1.1-.02 2.02.85 2.04 1.95S56.19 3.97 55.09 4H55c-1.1-.02-1.98-.94-1.96-2.04A2.01 2.01 0 0 1 55 0z"/>
</svg>