<svg xmlns="http://www.w3.org/2000/svg" width="437" height="326" viewBox="0 0 437 326"><path d="M172 175H2m51 149h41l97-50.943M375 324h-41l-88-51m189-98H259M242 72.989L336 2h39M193 72L96 2H55" fill="none" stroke="#4e83cb" stroke-miterlimit="10"/><path d="M242 71a2 2 0 1 1 .001 3.999A2 2 0 0 1 242 71zM375 0a2 2 0 1 1 .001 3.999A2 2 0 0 1 375 0zm0 322a2 2 0 1 1 .001 3.999A2 2 0 0 1 375 322zm60-149a2 2 0 1 1 .001 3.999A2 2 0 0 1 435 173zm-176 0a2 2 0 1 1 .001 3.999A2 2 0 0 1 259 173zm-13 98a2 2 0 1 1 .001 3.999A2 2 0 0 1 246 271zm-55 0a2 2 0 1 1 .001 3.999A2 2 0 0 1 191 271zM53 322a2 2 0 1 1 .001 3.999A2 2 0 0 1 53 322zM2 173a2 2 0 1 1 .001 3.999A2 2 0 0 1 2 173zm170 0a2 2 0 1 1 .001 3.999A2 2 0 0 1 172 173zm21-103a2 2 0 1 1 .001 3.999A2 2 0 0 1 193 70zM55 0a2 2 0 1 1 .001 3.999A2 2 0 0 1 55 0z" fill="#4e83cb"/></svg>