<svg id="Layer_4" xmlns="http://www.w3.org/2000/svg" width="1450" height="219.5" viewBox="0 0 1450 219.5"><style>.s{opacity:.5;fill:#06408e}</style><path class="s" d="M689.4 42.6l-42.2 59.8H85.8L0 198.5h978.8l27.2-45.3h359.4L1450 43.3z"/><path class="s" d="M1271.6 178.5l45-61.5 30.8.2 58.2-73.7-176-.2 22-25.3h-215l-17 25-809.4-1-100.4 111.7-25.8-.8-39.7 45.6h61.3l-19.6 21h347l21.2-21.9h575.2l9.8-19.1z"/><path class="s" d="M728.4 25.4l-382.5-.8L334 40.4l-14.1 1.8-54.4 59.4h-82.9l-66.1 77.6h1130.1l98.8-135.9-629.5-.3z"/><path class="s" d="M899.2 153.3h277l26.4-32.9 39.6.2 89-120.6h-174.6l-33 43.4L559.8 42l20.8-27.6L301 12.9l-24.8 29.4 677.3-.3-21.2 28.7-786.6-.3-26.4 32h150l-63.6 76.8 678-1.1z"/></svg>