<svg id="Layer_4" xmlns="http://www.w3.org/2000/svg" width="1380" height="201" viewBox="0 0 1439 206.6"><style>.s{opacity:.5;fill:#06408e}</style><path class="s" d="M682.9 29.7l-42.3 59.8H119.3l-85.8 96.1h1148.8l27.1-45.3h77.4l80.7-109.8z"/><path class="s" d="M1306.1 165.7l43.9-61.6 30.9.2 58.1-73.7-1185.4-1.5-100.4 111.7-25.7-.8-67.1 66.6h246.1l21.2-21.9h695.1l9.9-19z"/><path class="s" d="M842.7 140.4h277l26.4-32.9 89.6.2L1314 1.5 918.5 0l-42.8 57.8-586.5-.3-90.1 108.8 628-1z"/><path class="s" d="M1351.9 12.5l-622.5-.8-11.9 15.8-514.1 1.8L149 88.7H66.1L0 166.3h1240z"/></svg>