<svg xmlns="http://www.w3.org/2000/svg" width="399" height="96" viewBox="0 0 399 96"><path d="M107.256 13.74c.636 1.8-.8 2.31-3.857 3.37C89.538 21.93 53.713 31.9 53.713 31.9s33.435-13.6 48.279-18.76c2.883-1.01 4.629-1.2 5.264.6zm-44 50.1c.636 1.8-.8 2.31-3.857 3.37C45.538 72.03 9.713 82 9.713 82s33.435-13.6 48.279-18.76c2.883-1.01 4.629-1.2 5.264.6zm264.7-37.18c-.56 1.82-2.02 1.38-5.11.41-14-4.37-48.725-17.69-48.725-17.69s34.962 8.98 49.965 13.66c2.914.91 4.434 1.8 3.874 3.62zm61.74 58.32c-.63 1.8-2.08 1.29-5.12.2-13.81-4.96-47.94-19.72-47.94-19.72s34.55 10.43 49.34 15.74c2.884 1.03 4.354 1.98 3.724 3.78z" fill="#fff" fill-rule="evenodd" opacity=".7"/></svg>