<svg xmlns="http://www.w3.org/2000/svg" width="89.12" height="93.62" viewBox="0 0 89.12 93.62">
    <path fill="#FFF" d="M88.78 25.32a6.742 6.742 0 0 0-3.37-3.96L45.22.76a6.777 6.777 0 0 0-9.13 2.94l-.03.05-3.46-1.16a6.81 6.81 0 0 0-8.61 4.26l-.36 1.08-5.4-.81a6.785 6.785 0 0 0-7.72 5.7l-.01.08H6.8a6.803 6.803 0 0 0-6.79 6.79v67.13a6.803 6.803 0 0 0 6.79 6.79h45.16c2.7 0 5.14-1.6 6.22-4.07.09-.19 30.18-59.04 30.18-59.04.82-1.6.98-3.47.42-5.18zm-23.09-7.58a4.71 4.71 0 0 1 .87 3.52l-7.81 51.89V19.69c0-1.74-.67-3.42-1.87-4.68l5.71.86c1.24.18 2.36.86 3.1 1.87zm2.91 3.82c.27-1.78-.18-3.59-1.25-5.04-.02-.02-.04-.05-.06-.08l7.45 2.51c2.47.83 3.81 3.51 2.98 5.98 0 .01 0 .01-.01.02L60.32 76.56l8.28-55zM40.68 2.3a4.65 4.65 0 0 1 3.6.29l22.4 11.48-28.64-9.65a4.673 4.673 0 0 1 2.64-2.12zM25.94 7.51a4.729 4.729 0 0 1 6-2.97l24.93 8.39-31.18-4.69.25-.73zm-11.53 2.52a4.76 4.76 0 0 1 3.52-.88l24.91 3.75H12.59c.23-1.15.88-2.17 1.82-2.87zm37.55 81.52H6.8c-2.61 0-4.73-2.12-4.73-4.73V19.69c0-2.61 2.12-4.73 4.73-4.73h45.16c2.61 0 4.73 2.12 4.73 4.73v67.13c0 .38-.05.75-.13 1.12-.03.08-.05.17-.07.26a4.74 4.74 0 0 1-4.53 3.35zm34.57-61.99L62.6 76.23 79.66 25.6c.56-1.65.46-3.45-.28-5.02l5.1 2.61a4.74 4.74 0 0 1 2.05 6.37z"/>
    <path fill="#0091EA" d="M53.67 79.37a4.063 4.063 0 0 0-3.74-2.47c-.48 0-.96.09-1.41.26v-1.18h.76c.57 0 1.03-.46 1.03-1.03 0-.57-.46-1.02-1.03-1.02h-3.56c-.57 0-1.03.46-1.03 1.02 0 .57.46 1.03 1.03 1.03h.75v1.18c-.45-.17-.93-.26-1.41-.26a4.065 4.065 0 0 0-1.6 7.8 4.059 4.059 0 0 0 4.04 4.56 4.063 4.063 0 0 0 4.03-4.56 4.065 4.065 0 0 0 2.14-5.33zm-2.13 2.79c-.33.45-.83.74-1.38.8l-1.4.15.57 1.28a2.002 2.002 0 0 1-1.84 2.81c-1.11 0-2.01-.9-2.01-2 0-.28.06-.55.17-.81l.57-1.28-1.4-.15a2.016 2.016 0 0 1-1.77-2.22c.13-1.1 1.12-1.89 2.22-1.77.55.06 1.05.35 1.38.8l.83 1.12.82-1.12a2.013 2.013 0 1 1 3.24 2.39zM5.1 27.14c.64 1.5 2.11 2.47 3.74 2.47.48 0 .96-.09 1.41-.26v1.18h-.76c-.57 0-1.03.46-1.03 1.03 0 .57.46 1.02 1.03 1.02h3.56c.57 0 1.03-.46 1.03-1.02 0-.57-.46-1.03-1.03-1.03h-.75v-1.18c.45.17.93.26 1.41.26a4.065 4.065 0 0 0 1.6-7.8 4.059 4.059 0 0 0-4.04-4.56 4.063 4.063 0 0 0-4.03 4.56 4.065 4.065 0 0 0-2.14 5.33zm2.13-2.79c.33-.45.83-.74 1.38-.8l1.4-.15-.57-1.28a2.002 2.002 0 0 1 1.84-2.81c1.11 0 2.01.9 2.01 2 0 .28-.06.55-.17.81l-.57 1.28 1.4.15c1.1.13 1.89 1.12 1.77 2.22a2.016 2.016 0 0 1-2.22 1.77c-.55-.06-1.05-.35-1.38-.8l-.83-1.12-.82 1.12a2.013 2.013 0 1 1-3.24-2.39zm28.39 23.93c.1-.46.16-.93.16-1.4a6.403 6.403 0 0 0-6.65-6.14 6.395 6.395 0 0 0-6.14 6.14c0 .47.05.94.15 1.4a6.39 6.39 0 0 0-4.16 8.03 6.399 6.399 0 0 0 6.09 4.46c1.16 0 2.29-.31 3.28-.91v4.11h-2.12c-.57 0-1.03.46-1.03 1.03s.46 1.03 1.03 1.03h6.3c.57 0 1.03-.46 1.03-1.03s-.46-1.03-1.03-1.03h-2.12v-4.11c.99.6 2.12.91 3.28.91 3.53 0 6.39-2.87 6.39-6.4 0-2.78-1.81-5.25-4.46-6.09zm2.37 6.59a4.328 4.328 0 0 1-4.3 3.84 4.31 4.31 0 0 1-3.48-1.76l-.83-1.11-.82 1.11a4.33 4.33 0 0 1-6.06.91 4.33 4.33 0 0 1-.91-6.06c.72-.97 1.8-1.6 3-1.73l1.39-.16-.57-1.28a4.336 4.336 0 0 1 3.97-6.09 4.336 4.336 0 0 1 3.97 6.09l-.57 1.28 1.4.16c2.38.27 4.09 2.42 3.81 4.8z"/>
</svg>
