<svg xmlns="http://www.w3.org/2000/svg" width="89.96" height="89.95" viewBox="0 0 89.96 89.95"><path fill="#FFF" d="M58.29 23.15c-1.213 1.044-.97 3.056.46 3.78l11.41 5.87-32.24 20.46c-1.472.922-1.382 3.174.17 3.97l13.55 7.1L4.83 89.95l28.86-24.26c1.238-1.04 1.002-3.039-.42-3.79l-14.6-7.65 31.07-19.23c1.488-.911 1.41-3.179-.15-3.98L36.4 24.12 85.12 0 58.29 23.15z"/><path fill="#FFF" d="M44.98.62C20.18.62 0 20.52 0 44.97s20.18 44.36 44.98 44.36 44.98-19.9 44.98-44.36S69.78.62 44.98.62zm0 85.75C21.83 86.37 3 67.8 3 44.97S21.83 3.58 44.98 3.58s41.98 18.57 41.98 41.39-18.83 41.4-41.98 41.4z"/><path fill="#0091EA" d="M20.58 66.74a32.075 32.075 0 0 1-8.56-21.77c0-17.92 14.79-32.49 32.96-32.49 2.077.003 4.15.2 6.19.59.153-.77.387-1.521.7-2.24a35.58 35.58 0 0 0-6.89-.68c-19.47 0-35.31 15.62-35.31 34.82a34.385 34.385 0 0 0 9.64 23.84 9.728 9.728 0 0 1 1.27-2.07zm49.46-46.27c-.357.724-.8 1.402-1.32 2.02a32.14 32.14 0 0 1 9.22 22.48c0 17.92-14.79 32.5-32.96 32.5-2.306 0-4.605-.241-6.86-.72a10.543 10.543 0 0 1-.86 2.18c2.534.566 5.123.855 7.72.86 19.47 0 35.31-15.62 35.31-34.82a34.481 34.481 0 0 0-10.25-24.5z"/></svg>