<svg xmlns="http://www.w3.org/2000/svg" width="268.66" height="374.61" viewBox="0 0 268.66 374.61"><linearGradient id="a" gradientUnits="userSpaceOnUse" x1="112.001" y1="164.577" x2="155.289" y2="207.865"><stop offset=".179" stop-color="#09f4ef"/><stop offset=".308" stop-color="#09d4eb"/><stop offset=".526" stop-color="#0aa3e6"/><stop offset=".719" stop-color="#0a80e2"/><stop offset=".875" stop-color="#0a6ae0"/><stop offset=".977" stop-color="#0a62df"/></linearGradient><path fill="url(#a)" d="M179.11 186.95l-44.74 44.73-44.74-44.73 44.74-44.74z"/><linearGradient id="b" gradientUnits="userSpaceOnUse" x1="70.091" y1="119.784" x2="195.103" y2="250.368"><stop offset="0" stop-color="#09f4ef"/><stop offset="1" stop-color="#0a62df"/></linearGradient><path fill="url(#b)" d="M134.33 52.56L0 186.88l134.33 134.33 134.33-134.33L134.33 52.56zm0 7.07l127.26 127.26-127.26 127.25L7.07 186.88 134.33 59.63z"/><linearGradient id="c" gradientUnits="userSpaceOnUse" x1="134.328" y1="272.305" x2="134.328" y2="130.078"><stop offset="0" stop-color="#09f4ef"/><stop offset="1" stop-color="#0a62df"/></linearGradient><path fill="url(#c)" d="M134.33 0L27.38 187.31l106.51 186.54.43.76 106.24-186.07.71-1.24L134.33 0zm0 364.53L33.14 187.31 134.33 10.08 235.52 187.3 134.33 364.53z"/></svg>