<svg xmlns="http://www.w3.org/2000/svg" width="106.92" height="84.56" viewBox="0 0 106.92 84.56">
    <path fill="#FFF" d="M23.02 54.55c8.14 5.53 18.95 8.58 30.44 8.58s22.3-3.05 30.44-8.58c8.26-5.61 12.8-13.11 12.8-21.11s-4.55-15.5-12.8-21.11C75.76 6.8 64.94 3.75 53.46 3.75s-22.3 3.05-30.44 8.58c-8.26 5.61-12.8 13.11-12.8 21.11s4.54 15.5 12.8 21.11zm30.44 6.68c-.18 0-1.87-.03-1.89-.03l.01-.72c.62.03 1.25.04 1.88.04s1.25-.02 1.88-.04l.01.72c-.02 0-1.7.03-1.89.03zM23.68 50.95l3.74-.69c.41.48.84.96 1.31 1.42l-3.03 1.06c-.7-.56-1.38-1.16-2.02-1.79zm2-8.13c-.2-.88-.3-1.78-.3-2.68 0-.38.02-.76.05-1.14.09-.96.29-1.91.6-2.83.32-.96.75-1.88 1.27-2.75.57-.95 1.23-1.83 1.97-2.65.65-.72 1.35-1.39 2.1-2.01.95-.79 1.95-1.51 3.01-2.16.98-.6 2-1.14 3.05-1.62a33.6 33.6 0 0 1 3.76-1.46c1.17-.37 2.35-.69 3.55-.95 1.38-.3 2.78-.52 4.19-.67.02 0 .05-.01.07-.01l.41-.04v1.92c-4.95.46-9.69 2.19-13.77 5.03-3.95 2.91-6.12 6.69-6.12 10.65 0 4.33 2.54 8.36 7.16 11.37a30.943 30.943 0 0 0 16.76 4.53c5.91.11 11.72-1.46 16.76-4.54 4.62-3.01 7.16-7.04 7.16-11.37 0-3.95-2.17-7.73-6.12-10.65a28.837 28.837 0 0 0-13.76-5.02v-1.91l.23.02c1.42.14 2.82.36 4.21.65 1.2.25 2.4.56 3.57.93 1.29.4 2.55.88 3.78 1.44 1.05.48 2.08 1.01 3.07 1.61 1.07.64 2.08 1.35 3.04 2.14.76.62 1.47 1.3 2.13 2.02.75.82 1.42 1.7 2 2.65.54.88.98 1.81 1.31 2.78.32.93.53 1.89.63 2.87.04.4.06.8.06 1.19 0 .89-.1 1.78-.29 2.65a13.34 13.34 0 0 1-1.04 2.96 15.37 15.37 0 0 1-1.86 2.92c-.8.99-1.68 1.9-2.65 2.72a25.617 25.617 0 0 1-4.38 2.98c-1.34.73-2.72 1.35-4.15 1.88-1.99.73-4.04 1.3-6.12 1.68-1.67.31-3.37.51-5.07.61a42.595 42.595 0 0 1-10.35-.66c-2.07-.39-4.11-.96-6.08-1.7a31.31 31.31 0 0 1-4.08-1.88c-1.54-.84-2.99-1.84-4.33-2.98-.95-.82-1.83-1.72-2.61-2.7-.71-.89-1.32-1.86-1.83-2.88-.42-.94-.76-1.93-.99-2.94zm27.78-13.55c.24 0 .48-.03.71-.08v3.21c0 .39-.32.71-.71.71-.39 0-.71-.32-.71-.71v-3.21c.23.05.47.08.71.08zm4-3.59c.66.08 1.31.17 1.95.29l-2.97 3.75c-.12-.04-.24-.08-.37-.11v-1.4a4.04 4.04 0 0 0 1.39-2.53zM31.44 39.45a10.28 10.28 0 0 1 2.79-6.79l12.48 1.51c.05.6.25 1.17.58 1.67L32.04 42.7c-.4-1.05-.6-2.15-.6-3.25zm14-13.04l3.28 4.15a4.83 4.83 0 0 0-1.62 1.74l-11.11-1.34c2.78-2.2 6.01-3.75 9.45-4.55zm8.02 8.6c1.44 0 2.61-1.17 2.61-2.61v-.8l.3.12c.88.29 1.58.97 1.91 1.83.03.11.04.23.04.35-.05.61-.37 1.17-.87 1.53-.62.48-1.34.83-2.11 1-1.24.3-2.54.3-3.78 0-.77-.17-1.49-.52-2.11-1-.5-.36-.81-.92-.86-1.53 0-.12.01-.24.04-.35.33-.87 1.03-1.54 1.91-1.83l.3-.12v.79a2.629 2.629 0 0 0 2.62 2.62zm-4.72 2.25c.4.26.82.48 1.26.66l-6.83 13.9c-4.7-1.59-8.4-4.23-10.31-7.42l15.88-7.14zm3.13 1.17c1.05.17 2.13.17 3.18 0l6.85 13.94a33.745 33.745 0 0 1-16.88 0l6.85-13.94zm11.87 13.39l-6.83-13.9c.44-.18.87-.4 1.26-.66l15.87 7.14c-1.9 3.2-5.59 5.84-10.3 7.42zm11.14-9.13l-15.25-6.86c.33-.5.53-1.07.58-1.67l12.48-1.51a10.28 10.28 0 0 1 2.79 6.79c0 1.11-.2 2.21-.6 3.25zM59.82 32.3c-.39-.7-.95-1.3-1.62-1.74l3.28-4.15c3.45.8 6.68 2.35 9.45 4.54L59.82 32.3zm-8.97-2.69c-.12.03-.24.07-.37.11l-2.97-3.75c.64-.11 1.29-.21 1.95-.29.13.98.63 1.89 1.38 2.53l.01 1.4zm30.36 23.13l-3.02-1.06c.47-.46.9-.93 1.31-1.42l3.73.69c-.65.63-1.32 1.23-2.02 1.79zm-23.97 7.62c1.23-.1 2.46-.26 3.67-.47l.4.79c-1.33.19-2.69.33-4.06.43l-.01-.75zm14.66-4.14l1.89.95c-1.15.51-2.34.98-3.57 1.4l-.94-1.1c.9-.39 1.78-.81 2.62-1.25zm-4.5 1.97l.86 1c-1.64.47-3.3.86-4.97 1.17l-.43-.85c1.53-.35 3.05-.79 4.54-1.32zm11.72-3.93c-1.02.68-2.08 1.3-3.17 1.86l-2.07-1.05c.94-.59 1.85-1.24 2.71-1.95l2.77.97c-.08.06-.16.12-.24.17zm-44.1 1.96c.84.45 1.72.87 2.63 1.25l-.94 1.1c-1.21-.41-2.41-.88-3.57-1.4l1.88-.95zM46 59.88c1.21.21 2.44.37 3.67.47l-.01.74c-1.36-.09-2.71-.23-4.06-.42l.4-.79zm-2.36.48c-1.68-.3-3.33-.69-4.97-1.17l.85-.99c1.49.53 3.01.97 4.55 1.31l-.43.85zm-13.3-7.23c.86.71 1.77 1.36 2.71 1.95l-2.08 1.05c-1.17-.61-2.31-1.29-3.41-2.03l2.78-.97zm54.4-3.83l-3.97-.74c.32-.48.61-.96.87-1.45l4.7-.04c-.48.78-1.01 1.53-1.6 2.23zm2.62-4.13l-4.85.04c.16-.44.31-.88.43-1.32l5.14-.62c-.2.65-.44 1.28-.72 1.9zm1.32-5.98c0 .7-.05 1.41-.16 2.1l-5.2.63c.08-.59.12-1.19.12-1.78 0-.15-.01-.3-.01-.45l5.25-.99v.49zm-5.44-1.4c-.08-.46-.18-.91-.3-1.37l4.91-1.99c.27.77.48 1.56.62 2.37l-5.23.99zm-.91-3.17c-.19-.46-.41-.92-.65-1.38l4.16-2.71c.47.69.89 1.4 1.26 2.15l-4.77 1.94zm-1.62-3.01c-.31-.46-.64-.9-1-1.34l3.56-2.79c.51.5.98 1.02 1.42 1.54l-3.98 2.59zm-2.27-2.76c-.29-.3-.6-.6-.92-.89l2.81-2.99c.53.39 1.04.79 1.52 1.2l-3.41 2.68zm-2.38-2.11c-.53-.41-1.08-.81-1.65-1.19l2.25-2.92c.72.4 1.42.82 2.09 1.25l-2.69 2.86zm-3.28-2.19c-.49-.28-1-.55-1.52-.82l1.82-2.82c.63.27 1.25.55 1.86.84l-2.16 2.8zm-3.26-1.63c-.68-.29-1.38-.57-2.09-.82l1.6-2.67c.77.24 1.52.49 2.26.76l-1.77 2.73zm-3.95-1.43c-.65-.19-1.3-.37-1.96-.53l.94-2.68c.87.18 1.72.38 2.57.61l-1.55 2.6zm-3.83-.94c-.87-.17-1.75-.31-2.63-.43l.3-2.65c1.1.12 2.19.27 3.26.45l-.93 2.63zm-4.49-.81a.826.826 0 0 0-.28-.21c.12-.37.17-.75.17-1.14 0-.38-.07-.76-.19-1.12.19.01.39.03.58.04l-.28 2.43zm-2.01-1.34c.01.49-.19.95-.54 1.29-.38.36-.39.97-.02 1.34.18.19.43.29.68.29h.25v3.8c0 .73-.37 1.41-.99 1.8-.03.02-.05.04-.08.06-.62.5-1.52.5-2.14 0-.03-.02-.05-.04-.08-.06-.62-.39-.99-1.07-.99-1.8v-3.8h.25c.52 0 .95-.42.95-.95 0-.26-.1-.51-.29-.68a1.772 1.772 0 0 1 1.3-3.05 1.8 1.8 0 0 1 1.7 1.76zm-5.29 1.12a.98.98 0 0 0-.28.21l-.27-2.43c.19-.01.38-.03.57-.04-.24.74-.25 1.53-.02 2.26zm-2.45-2.05l.3 2.65c-.88.11-1.76.25-2.63.42l-.93-2.63c1.09-.17 2.17-.32 3.26-.44zm-5.14.81l.95 2.68c-.66.16-1.31.34-1.96.53l-1.56-2.6c.85-.23 1.71-.43 2.57-.61zm-4.46 1.15l1.59 2.66c-.71.26-1.41.53-2.09.83l-1.76-2.73c.75-.27 1.5-.52 2.26-.76zm-4.06 1.48l1.82 2.82c-.52.26-1.03.53-1.53.82l-2.15-2.8c.6-.29 1.22-.57 1.86-.84zm-3.57 1.73l2.24 2.91c-.57.38-1.12.78-1.65 1.19l-2.69-2.85c.68-.45 1.38-.86 2.1-1.25zm-3.68 2.34l2.81 2.99c-.32.29-.62.58-.92.89l-3.41-2.67c.49-.42.99-.82 1.52-1.21zm-2.94 2.5l3.56 2.79c-.36.44-.69.89-1 1.34l-3.98-2.59c.45-.53.93-1.04 1.42-1.54zm-2.57 3.06l4.16 2.7c-.24.45-.45.91-.64 1.38l-4.78-1.94c.36-.74.79-1.46 1.26-2.14zm-2.01 3.9l4.91 1.99c-.12.45-.22.91-.3 1.37l-5.23-.99c.14-.81.35-1.6.62-2.37zm4.42 5.25c0 .15-.01.3-.01.45 0 .6.04 1.19.12 1.78l-5.2-.63c-.11-.69-.16-1.4-.16-2.1 0-.16.01-.33.01-.49l5.24.99zm.5 4.2c.12.44.26.88.42 1.32l-4.85-.04c-.28-.62-.52-1.25-.71-1.9l5.14.62zm1.29 3.22c.26.49.55.97.87 1.45l-3.98.74a19.2 19.2 0 0 1-1.6-2.22l4.71.03zM53.46 5.64c15.04 0 28.24 5.43 35.47 13.53-8.59-6.75-21.57-10.85-35.47-10.85s-26.88 4.1-35.47 10.86c7.23-8.11 20.43-13.54 35.47-13.54zM12.21 31.56c.33-3.08 1.7-5.96 3.88-8.15 7.95-8.11 22.06-13.19 37.37-13.19s29.41 5.07 37.37 13.19c2.18 2.2 3.55 5.07 3.88 8.15a19.126 19.126 0 0 1-.85 7.79l-.22-3.37c-.03-.52-.49-.92-1.01-.89s-.92.49-.89 1.01l.23 3.46c.03.5.45.89.95.89h.06c.22-.02.43-.11.59-.26a25.352 25.352 0 0 1-7.06 9.93c2.57-3.07 4.01-6.92 4.07-10.92 0-12.8-15.45-23.27-35.22-23.91a3.603 3.603 0 0 0-3.84 0c-1.1.03-2.2.1-3.28.2-1.83.16-3.65.42-5.46.77-1.61.31-3.2.69-4.73 1.14-1.43.41-2.83.9-4.21 1.45-1.28.51-2.54 1.09-3.77 1.73-1.35.7-2.66 1.49-3.91 2.36-1.13.79-2.21 1.65-3.22 2.59-1.04.96-2 2.02-2.86 3.15-.97 1.28-1.79 2.67-2.42 4.14-.86 2.01-1.31 4.18-1.32 6.37 0 1.06.11 2.12.32 3.15.6 2.81 1.86 5.45 3.66 7.69a25.223 25.223 0 0 1-6.96-9.85c.16.15.37.24.59.26H14c.5 0 .91-.39.95-.89l.23-3.46c.03-.52-.36-.98-.89-1.01s-.98.36-1.01.89l-.22 3.37a19.126 19.126 0 0 1-.85-7.78zm94.71 3.1c0-.08-.01-.51-.01-.51-.2-9.15-5.79-17.7-15.81-24.13C81.03 3.56 67.67 0 53.46 0S25.88 3.56 15.82 10.02C5.8 16.45.21 25 .01 34.15c0 0-.01.42-.01.51 0 1.7.19 3.39.56 5.05.75 3.62 2.08 7.09 3.95 10.28 1.27 9.45 6.91 18.17 15.91 24.58 9.06 6.45 20.8 10 33.05 10s23.98-3.55 33.05-10c9-6.4 14.64-15.12 15.91-24.58 1.87-3.19 3.2-6.66 3.94-10.28.36-1.66.55-3.36.55-5.05zM53.46 1.9c28.3 0 51.35 14.56 51.55 32.52-.02 1.58-.18 3.15-.47 4.7-3.43 15.95-25.03 28.29-51.08 28.29S5.81 55.07 2.38 39.11c-.3-1.55-.46-3.12-.47-4.7C2.11 16.47 25.15 1.9 53.46 1.9zm42.29 53.99a48.255 48.255 0 0 1-5.76 5.4A58.622 58.622 0 0 1 53.46 73.7a58.67 58.67 0 0 1-36.54-12.41 49.03 49.03 0 0 1-5.76-5.4 46.91 46.91 0 0 0 4.65 3.4c10.07 6.46 23.44 10.02 37.64 10.02s27.57-3.56 37.64-10.02c1.63-1.04 3.19-2.17 4.66-3.4zM85.4 73.01c-8.74 6.22-20.09 9.65-31.94 9.65s-23.2-3.43-31.94-9.65C14.43 67.97 9.54 61.44 7.38 54.29c2.43 3.16 5.23 6.01 8.36 8.48A60.54 60.54 0 0 0 53.46 75.6c13.66.1 26.96-4.42 37.72-12.82 3.12-2.47 5.93-5.32 8.36-8.48-2.16 7.14-7.05 13.67-14.14 18.71zM27.72 19.79c.2.48.76.71 1.24.51.48-.2.71-.76.51-1.24l-.95-2.26c-.2-.48-.76-.71-1.25-.51s-.71.76-.51 1.25l.96 2.25zm50.24.51c.48.2 1.04-.02 1.24-.51l.95-2.26a.959.959 0 0 0-.51-1.25.959.959 0 0 0-1.25.51l-.95 2.26c-.19.49.03 1.04.52 1.25zM51.8 13.36h3.33c.52 0 .95-.42.95-.95s-.42-.95-.95-.95H51.8c-.52 0-.95.42-.95.95s.42.95.95.95z"/>
    <circle fill="#0091EA" cx="77.38" cy="35.85" r="7"/>
</svg>
