<svg xmlns="http://www.w3.org/2000/svg" width="84.62" height="90.18" viewBox="0 0 84.62 90.18">
    <path fill="#0091EA" d="M27.95 16.89c-3.5 0-6.34 2.85-6.34 6.35 0 3.5 2.85 6.34 6.35 6.34 3.5 0 6.34-2.85 6.34-6.35-.01-3.5-2.85-6.34-6.35-6.34zm0 10.05a3.7 3.7 0 0 1-3.7-3.71 3.7 3.7 0 0 1 3.71-3.7 3.704 3.704 0 1 1-.01 7.41zM54.72 6.85c-.01 0-.01 0 0 0a6.35 6.35 0 0 0-6.34 6.35c.01 3.5 2.85 6.34 6.35 6.33a6.34 6.34 0 0 0-.01-12.68zm0 10.04s-.01 0 0 0c-2.05-.01-3.71-1.67-3.7-3.71s1.67-3.7 3.71-3.69c2.04.01 3.69 1.66 3.69 3.7s-1.66 3.7-3.7 3.7zm6.78 29.26a6.34 6.34 0 0 0 12.68-.01c0-4.15-4.1-7.24-8.09-6.09a6.34 6.34 0 0 0-6.34-6.33c-4.38 0-7.5 4.54-5.91 8.63-5.74-.78-9.48 6.25-5.52 10.56-3.09 1.18-4.78 4.65-3.8 7.81a6.375 6.375 0 0 0-3.88.35c-.5-3.9-4.56-6.45-8.3-5.2a6.334 6.334 0 0 0-4.33-5.57 6.333 6.333 0 0 0 3.67-5.75c0-3.5-2.84-6.34-6.34-6.34S19 41.05 19 44.56c0 2.81 1.83 5.18 4.35 6.02-4.34 2.02-4.9 8.16-.98 10.93a6.309 6.309 0 0 0-3.03 5.4c0 3.5 2.84 6.34 6.34 6.34 3.21 0 5.86-2.39 6.28-5.5 1.56.64 3.33.62 4.88-.04.4 3.12 3.06 5.53 6.28 5.53 4.21 0 7.31-4.21 6.05-8.23.96.21 1.95.2 2.9-.03-1.28 4.03 1.82 8.26 6.04 8.26 4.15 0 7.23-4.09 6.09-8.09 3.58.18 6.67-2.73 6.67-6.32 0-3.5-2.84-6.34-6.34-6.34-4.15 0-7.23 4.09-6.09 8.09-.62-.03-1.23.02-1.84.17.68-2.15.15-4.54-1.38-6.2 3.24-1.24 4.91-4.97 3.65-8.21.89.12 1.77.06 2.63-.19zm10.04 0c0 2.05-1.66 3.71-3.71 3.71s-3.71-1.66-3.71-3.71 1.66-3.71 3.71-3.71 3.71 1.66 3.71 3.71zm-11.79-9.79c2.05 0 3.71 1.66 3.71 3.71s-1.66 3.71-3.71 3.71-3.71-1.66-3.71-3.71 1.66-3.71 3.71-3.71zm-38.1 8.2c0-2.04 1.66-3.7 3.7-3.7s3.7 1.66 3.7 3.7-1.66 3.7-3.7 3.7c-2.05 0-3.7-1.66-3.7-3.7zm4.38 8.06c2.04 0 3.7 1.66 3.7 3.7 0 2-1.7 3.7-3.7 3.7-2.04 0-3.7-1.66-3.7-3.7s1.65-3.7 3.7-3.7zm-.34 17.99c-2.05 0-3.7-1.66-3.7-3.7s1.66-3.7 3.7-3.7c2.01 0 3.7 1.69 3.7 3.7 0 2.04-1.66 3.7-3.7 3.7zm5.61-6.65c-.36-.68-.64-1.29-.64-2.08 0-2 1.7-3.7 3.7-3.7 2.04 0 3.7 1.66 3.7 3.7s-1.66 3.7-3.7 3.7c-1.28 0-2.4-.64-3.06-1.62zm11.83 6.65c-2.05 0-3.7-1.66-3.7-3.7s1.66-3.7 3.7-3.7 3.7 1.66 3.7 3.7-1.66 3.7-3.7 3.7zm3.74-11.78c0-2.04 1.66-3.7 3.7-3.7s3.7 1.66 3.7 3.7-1.66 3.7-3.7 3.7-3.7-1.65-3.7-3.7zm17.67-3.69c2.04 0 3.7 1.65 3.7 3.7s-1.65 3.7-3.7 3.7c-2.04 0-3.7-1.65-3.7-3.7s1.66-3.7 3.7-3.7zm-2.71 11.77c0 2.05-1.66 3.7-3.7 3.7s-3.7-1.66-3.7-3.7 1.66-3.7 3.7-3.7 3.7 1.65 3.7 3.7zm-8.85-14.58c-2.04 0-3.7-1.66-3.7-3.7s1.66-3.7 3.7-3.7 3.7 1.66 3.7 3.7c0 2.05-1.66 3.7-3.7 3.7z"/>
    <path fill="#FFF" d="M49.3 38.33a6.988 6.988 0 0 0-6.99-6.98c-3.85.01-6.98 3.14-6.97 6.99s3.14 6.98 6.99 6.97c3.85-.01 6.97-3.13 6.97-6.98zm-11.33 0c0-2.4 1.94-4.34 4.34-4.34s4.34 1.94 4.34 4.34c0 2.39-1.95 4.34-4.34 4.34-2.4 0-4.34-1.94-4.34-4.34zm26.38 33.4l20.28-35.1L63.47.01H21.15L-.01 36.63l20.28 35.1-6.86 11.4h-7.8v7.04h73.4v-7.04h-7.8l-6.86-11.4zM3.04 36.63L22.68 2.65h39.26l19.64 33.98-18.82 32.45-13.63-22.59c2.34-1.95 3.83-4.89 3.83-8.17 0-5.88-4.77-10.64-10.64-10.64s-10.64 4.77-10.64 10.64c0 3.27 1.48 6.2 3.81 8.15l-13.61 22.6L3.04 36.63zm34.65 11.29c.14.07.29.12.43.18 2.71 1.17 5.87 1.15 8.56-.07l13.9 22.57H24.04l13.65-22.68zm-3.39-9.59c-.01-4.42 3.58-8.01 8-8.02s8.01 3.58 8.02 8c.01 4.42-3.58 8.01-8 8.02h-.01c-4.42 0-8-3.58-8.01-8zM22.45 73.24h39.72l5.95 9.89H16.49l5.96-9.89zm53.91 14.29H8.26v-1.76h68.1v1.76z"/>
</svg>
